<?xml version="1.0" encoding="UTF-8" standalone="no"?>
<!-- Created with Inkscape (http://www.inkscape.org/) -->

<svg
   xmlns:dc="http://purl.org/dc/elements/1.1/"
   xmlns:cc="http://creativecommons.org/ns#"
   xmlns:rdf="http://www.w3.org/1999/02/22-rdf-syntax-ns#"
   xmlns:svg="http://www.w3.org/2000/svg"
   xmlns="http://www.w3.org/2000/svg"
   xmlns:xlink="http://www.w3.org/1999/xlink"
   xmlns:sodipodi="http://sodipodi.sourceforge.net/DTD/sodipodi-0.dtd"
   xmlns:inkscape="http://www.inkscape.org/namespaces/inkscape"
   width="284.35107"
   height="267.36658"
   id="svg11203"
   version="1.1"
   inkscape:version="0.48.4 r9939"
   sodipodi:docname="New document 2">
  <defs
     id="defs11205">
    <linearGradient
       y2="1290.0024"
       x2="-305.68732"
       y1="333.49368"
       x1="-328.02029"
       gradientUnits="userSpaceOnUse"
       id="linearGradient4082"
       xlink:href="#linearGradient3803"
       inkscape:collect="always" />
    <linearGradient
       id="linearGradient3803"
       inkscape:collect="always">
      <stop
         id="stop3805"
         offset="0"
         style="stop-color:#b3b3b3;stop-opacity:1" />
      <stop
         id="stop3807"
         offset="1"
         style="stop-color:#b3b3b3;stop-opacity:1" />
    </linearGradient>
    <linearGradient
       y2="952.37823"
       x2="1118.6848"
       y1="952.37817"
       x1="385.85864"
       gradientUnits="userSpaceOnUse"
       id="linearGradient4084-5"
       xlink:href="#linearGradient3850-7"
       inkscape:collect="always" />
    <linearGradient
       id="linearGradient3850-7"
       inkscape:collect="always">
      <stop
         id="stop3852-8"
         offset="0"
         style="stop-color:#808080;stop-opacity:1" />
      <stop
         id="stop3854-3"
         offset="1"
         style="stop-color:#cccccc;stop-opacity:1" />
    </linearGradient>
    <linearGradient
       y2="1084.8298"
       x2="-131.86952"
       y1="934.57324"
       x1="-145.3318"
       gradientTransform="matrix(1,0,0,0.9255308,0,75.653867)"
       gradientUnits="userSpaceOnUse"
       id="linearGradient4086"
       xlink:href="#linearGradient4005"
       inkscape:collect="always" />
    <linearGradient
       inkscape:collect="always"
       id="linearGradient4005">
      <stop
         style="stop-color:#1a1a1a;stop-opacity:1"
         offset="0"
         id="stop4007" />
      <stop
         id="stop4009"
         offset="0.34243858"
         style="stop-color:#333333;stop-opacity:1" />
      <stop
         style="stop-color:#666666;stop-opacity:1"
         offset="0.68883866"
         id="stop4013" />
      <stop
         style="stop-color:#808080;stop-opacity:1"
         offset="1"
         id="stop4011" />
    </linearGradient>
    <linearGradient
       y2="1084.8298"
       x2="-131.86952"
       y1="934.57324"
       x1="-145.3318"
       gradientTransform="matrix(1,0,0,-0.9255308,0,1798.3041)"
       gradientUnits="userSpaceOnUse"
       id="linearGradient4088"
       xlink:href="#linearGradient4005"
       inkscape:collect="always" />
    <linearGradient
       inkscape:collect="always"
       xlink:href="#linearGradient3803"
       id="linearGradient11309"
       gradientUnits="userSpaceOnUse"
       x1="-328.02029"
       y1="333.49368"
       x2="-305.68732"
       y2="1290.0024" />
    <linearGradient
       inkscape:collect="always"
       xlink:href="#linearGradient3850-7"
       id="linearGradient11311"
       gradientUnits="userSpaceOnUse"
       x1="385.85864"
       y1="952.37817"
       x2="1118.6848"
       y2="952.37823" />
    <linearGradient
       inkscape:collect="always"
       xlink:href="#linearGradient4005"
       id="linearGradient11313"
       gradientUnits="userSpaceOnUse"
       gradientTransform="matrix(1,0,0,0.9255308,0,75.653867)"
       x1="-145.3318"
       y1="934.57324"
       x2="-131.86952"
       y2="1084.8298" />
    <linearGradient
       inkscape:collect="always"
       xlink:href="#linearGradient4005"
       id="linearGradient11315"
       gradientUnits="userSpaceOnUse"
       gradientTransform="matrix(1,0,0,-0.9255308,0,1798.3041)"
       x1="-145.3318"
       y1="934.57324"
       x2="-131.86952"
       y2="1084.8298" />
  </defs>
  <sodipodi:namedview
     id="base"
     pagecolor="#ffffff"
     bordercolor="#666666"
     borderopacity="1.0"
     inkscape:pageopacity="0.0"
     inkscape:pageshadow="2"
     inkscape:zoom="1"
     inkscape:cx="154.37982"
     inkscape:cy="115.98272"
     inkscape:document-units="px"
     inkscape:current-layer="layer1"
     showgrid="false"
     fit-margin-top="0"
     fit-margin-left="0"
     fit-margin-right="0"
     fit-margin-bottom="0" />
  <metadata
     id="metadata11208">
    <rdf:RDF>
      <cc:Work
         rdf:about="">
        <dc:format>image/svg+xml</dc:format>
        <dc:type
           rdf:resource="http://purl.org/dc/dcmitype/StillImage" />
        <dc:title></dc:title>
      </cc:Work>
    </rdf:RDF>
  </metadata>
  <g
     inkscape:label="Layer 1"
     inkscape:groupmode="layer"
     id="layer1"
     transform="translate(-220.62018,-300.97833)">
    <g
       id="g4065"
       transform="matrix(0.2062723,0,0,0.2062723,539.45141,317.70801)">
      <g
         style="display:inline"
         id="g3821"
         transform="matrix(0.70214087,-0.71203806,0.71203806,0.70214087,-1050.8512,-48.42831)">
        <path
           style="color:#000000;fill:#999999;stroke:none;stroke-width:2.42781186;marker:none;visibility:visible;display:inline;overflow:visible;enable-background:accumulate"
           d="m -202.6066,1248.3742 21.0945,-912.1837 c 0,0 125.4512,-38.30832 156.4702,-199.13771 C 13.7702,-64.182349 -144.308,-143.19407 -144.308,-143.19407 l -85.2875,0 6,186.168242 -54.4032,77.166818 c -39.917,3.88016 -85.7845,-0.59265 -125.7471,-2 l -60.44342,-75.166818 -5.7017,-186.168242 -83.9614,0 c 0,0 -137.57052,79.954586 -98.22481,281.08606 31.44552,160.74655 182.70848,198.29851 182.70848,198.29851 l 1.5457,912.1837 c 0,0 19.31969,116.9923 126.95145,118.9652 127.53754,2.3378 138.2649,-118.9653 138.2649,-118.9652 z"
           id="path11869"
           inkscape:connector-curvature="0"
           sodipodi:nodetypes="ccsccccccccsccsc" />
        <path
           style="color:#000000;fill:#f2f2f2;stroke:none;stroke-width:2.2139895;marker:none;visibility:visible;display:inline;overflow:visible;enable-background:accumulate"
           d="m -223.80916,1227.3674 25.65943,-923.78824 c 0,0 95.46309,-22.14355 135.582564,-164.4881 C -8.7986599,-51.680481 -171.36861,-111.96815 -171.36861,-111.96815 l -25.04537,0.0653 5.5785,168.752933 -88.33186,100.805497 c -34.17748,3.85668 -101.46726,1.63097 -135.69712,0.35361 l -84.02926,-100.356342 -5.32306,-168.753598 -27.90963,0.0727 c 0,0 -137.27127,63.377769 -85.47055,251.56546 39.2254,142.50256 172.90998,163.68419 172.90998,163.68419 l 9.73089,923.696 c 0,0 4.36742,116.5426 105.02447,113.2404 92.40276,-3.0314 106.12246,-113.7906 106.12246,-113.7906 z"
           id="path11871"
           inkscape:connector-curvature="0"
           sodipodi:nodetypes="ccsccccccccsccsc" />
        <path
           sodipodi:nodetypes="ccsccccccsccsc"
           inkscape:connector-curvature="0"
           id="path11867"
           d="m -259.36273,1192.8518 16.57097,-907.91984 c 0,0 105.85787,-42.04103 136.36805,-121.21458 65.078119,-168.8769976 -54.6884,-237.540836 -54.6884,-237.540836 l 13.65909,135.309117 -103.34121,119.629769 c -31.23796,3.64426 -154.21874,1.69418 -185.50499,0.48341 l -99.92108,-119.100096 -3.84117,-135.3347 c 0,0 -125.6715,99.546806 -38.42986,237.783486 72.55716,114.96874 176.33444,120.3997 176.33444,120.3997 l -1.43281,907.88047 c 0,0 -12.01279,102.0067 71.04131,102.4465 86.93321,0.4601 73.18566,-102.8224 73.18566,-102.8224 z"
           style="color:#000000;fill:#e6e6e6;stroke:none;stroke-width:2.01684308;marker:none;visibility:visible;display:inline;overflow:visible;enable-background:accumulate" />
        <rect
           transform="matrix(0.99986794,0.01625139,-0.01625139,0.99986794,0,0)"
           ry="30.571154"
           rx="35.404846"
           y="343.87045"
           x="-357.75058"
           height="795.52124"
           width="72.661476"
           id="rect3003"
           style="color:#000000;fill:none;stroke:url(#linearGradient11309);stroke-width:31.74803352;stroke-miterlimit:4;stroke-dasharray:none;marker:none;visibility:visible;display:inline;overflow:visible;enable-background:accumulate" />
        <path
           transform="matrix(0.95636419,-0.00249218,0.00249218,0.95636419,-1153.1913,-207.72866)"
           d="m 899.10722,1503.4189 c 0,24.1758 -19.59836,43.7742 -43.77415,43.7742 -24.1758,0 -43.77415,-19.5984 -43.77415,-43.7742 0,-24.1758 19.59835,-43.7741 43.77415,-43.7741 24.17579,0 43.77415,19.5983 43.77415,43.7741 z"
           sodipodi:ry="43.774151"
           sodipodi:rx="43.774151"
           sodipodi:cy="1503.4189"
           sodipodi:cx="855.33307"
           id="path3775"
           style="color:#000000;fill:#ffffff;stroke:#999999;stroke-width:30.67710304;stroke-linecap:butt;stroke-linejoin:miter;stroke-miterlimit:4;stroke-opacity:1;stroke-dasharray:none;stroke-dashoffset:0;marker:none;visibility:visible;display:inline;overflow:visible;enable-background:accumulate"
           sodipodi:type="arc" />
      </g>
      <g
         id="g4035"
         transform="matrix(0.69166604,-0.67537497,0.6892296,0.67776243,-1730.0672,183.53206)">
        <g
           transform="matrix(1.0951729,0,0,0.94705165,-54.329117,39.290798)"
           id="g3866"
           style="display:inline">
          <path
             style="color:#000000;fill:#e6e6e6;stroke:#808080;stroke-width:24.64897156;stroke-linecap:butt;stroke-linejoin:miter;stroke-miterlimit:4;stroke-opacity:1;stroke-dasharray:none;stroke-dashoffset:0;marker:none;visibility:visible;display:inline;overflow:visible;enable-background:accumulate"
             d="m 298.30172,890.88265 520.23368,0 73.27022,-64.34107 272.41638,29.34855 0,178.34897 -272.41638,33.8637 -73.27022,-68.59865 -520.23368,0 z"
             id="path3838"
             inkscape:connector-curvature="0"
             sodipodi:nodetypes="ccccccccc" />
          <path
             sodipodi:nodetypes="ccccccccc"
             inkscape:connector-curvature="0"
             id="path3840"
             d="m 310.10476,942.34154 523.01026,-5.01956 65.00243,-59.64027 229.67705,25.52012 0,92.16078 -229.67705,27.60009 -65.00243,-67.60161 -523.01026,-3.01955 z"
             style="color:#000000;fill:url(#linearGradient11311);fill-opacity:1;stroke:none;stroke-width:25.79527473;marker:none;visibility:visible;display:inline;overflow:visible;enable-background:accumulate" />
        </g>
        <g
           id="g4029">
          <path
             style="color:#000000;fill:#808080;stroke:#1a1a1a;stroke-width:29.33858109;stroke-linecap:butt;stroke-linejoin:miter;stroke-miterlimit:4;stroke-opacity:1;stroke-dasharray:none;stroke-dashoffset:0;marker:none;visibility:visible;display:inline;overflow:visible;enable-background:accumulate"
             d="m -439.56276,812.32208 c 28.86463,-34.8804 62.47623,-70.52321 130.9803,-58.6088 0,0 133.11649,38.25448 234.3118,45.93162 135.68074,10.29334 159.27626,-8.83499 237.40995,-2.59513 40.86329,3.2634 83.3736,25.03989 105.96098,55.25574 17.65145,23.61289 12.37746,84.14831 12.37746,84.14831 0,0 5.07551,60.84258 -12.37746,84.14828 -22.61546,30.1996 -65.09769,51.9925 -105.96098,55.2558 -78.13369,6.2399 -101.72921,-12.8885 -237.40995,-2.5951 -101.19531,7.6771 -234.3118,45.9316 -234.3118,45.9316 -68.50407,11.9144 -102.11567,-23.7283 -130.9803,-58.6087 -28.10745,-33.9653 -27.91449,-124.13188 -27.91449,-124.13188 0,0 -0.19296,-90.16653 27.91449,-124.13174 z"
             id="path3858"
             inkscape:connector-curvature="0"
             sodipodi:nodetypes="scssacasscscs" />
          <path
             sodipodi:nodetypes="scssacasscscs"
             inkscape:connector-curvature="0"
             id="path3864"
             d="m -399.12493,850.07767 c 25.18112,-24.53014 54.5035,-49.59646 114.26567,-41.2175 0,0 116.12934,26.90298 204.41101,32.30208 118.36634,7.23885 138.95081,-6.21334 207.11382,-1.82514 35.64851,2.29509 72.73411,17.60966 92.4391,38.85947 15.39889,16.60608 10.79796,59.17844 10.79796,59.17844 0,0 4.4278,42.78842 -10.79796,59.17861 -19.72943,21.23817 -56.79059,36.56437 -92.4391,38.85937 -68.16301,4.3882 -88.74748,-9.064 -207.11382,-1.8251 -88.28167,5.399 -204.41101,32.302 -204.41101,32.302 -59.76217,8.379 -89.08455,-16.6872 -114.26567,-41.2174 -24.52068,-23.8865 -24.35232,-87.29748 -24.35232,-87.29748 0,0 -0.16836,-63.41086 24.35232,-87.29735 z"
             style="color:#000000;fill:#4d4d4d;fill-opacity:1;stroke:none;stroke-width:29.33858109;marker:none;visibility:visible;display:inline;overflow:visible;enable-background:accumulate" />
          <path
             style="color:#000000;fill:url(#linearGradient11313);fill-opacity:1;stroke:none;stroke-width:4.53543329;marker:none;visibility:visible;display:inline;overflow:visible;enable-background:accumulate"
             d="m -408.65893,984.98272 c 70.15057,-67.58194 413.3338938,-56.74731 552.45755,-33.29544 20.77916,3.5027 68.30402,55.21072 50.24954,65.11202 -21.75667,11.9316 -50.5071,19.0995 -79.48343,19.9808 -52.989009,1.6115 -110.7363461,-8.2828 -156.154371,-4.1867 -83.601669,7.5398 -164.845829,19.0075 -258.617369,36.9345 -14.10228,2.6961 -29.27147,-2.1503 -44.90776,-6.8407 -29.13688,-8.7401 -86.4468,-55.6404 -63.54416,-77.70448 z"
             id="path3888"
             inkscape:connector-curvature="0"
             sodipodi:nodetypes="ssssssss" />
          <path
             sodipodi:nodetypes="ssssssss"
             inkscape:connector-curvature="0"
             id="path4025"
             d="m -408.65893,888.97507 c 70.15057,67.58194 413.3338938,56.74731 552.45755,33.29544 20.77916,-3.5027 68.30402,-55.21072 50.24954,-65.11202 -21.75667,-11.9316 -50.5071,-19.0995 -79.48343,-19.9808 -52.989009,-1.6115 -110.7363461,8.2828 -156.154371,4.1867 -83.601669,-7.5398 -164.845829,-19.0075 -258.617369,-36.9345 -14.10228,-2.6961 -29.27147,2.1503 -44.90776,6.8407 -29.13688,8.7401 -86.4468,55.6404 -63.54416,77.70448 z"
             style="color:#000000;fill:url(#linearGradient11315);fill-opacity:1;stroke:none;stroke-width:4.53543329;marker:none;visibility:visible;display:inline;overflow:visible;enable-background:accumulate" />
        </g>
      </g>
    </g>
  </g>
</svg>
